<?xml version="1.0" encoding="UTF-8" standalone="no"?>
<!-- Created with Inkscape (http://www.inkscape.org/) -->
<svg
   xmlns:dc="http://purl.org/dc/elements/1.1/"
   xmlns:cc="http://web.resource.org/cc/"
   xmlns:rdf="http://www.w3.org/1999/02/22-rdf-syntax-ns#"
   xmlns:svg="http://www.w3.org/2000/svg"
   xmlns="http://www.w3.org/2000/svg"
   xmlns:sodipodi="http://sodipodi.sourceforge.net/DTD/sodipodi-0.dtd"
   xmlns:inkscape="http://www.inkscape.org/namespaces/inkscape"
   width="337.35614"
   height="860.12726"
   id="svg13084"
   sodipodi:version="0.32"
   inkscape:version="0.45.1"
   sodipodi:docbase="E:\Rok\Inked\Guitars"
   sodipodi:docname="Gibson Xplorer.svg"
   inkscape:output_extension="org.inkscape.output.svg.inkscape"
   version="1.0">
  <defs
     id="defs13086" />
  <sodipodi:namedview
     id="base"
     pagecolor="#ffffff"
     bordercolor="#666666"
     borderopacity="1.0"
     gridtolerance="10000"
     guidetolerance="10"
     objecttolerance="10"
     inkscape:pageopacity="0.0"
     inkscape:pageshadow="2"
     inkscape:zoom="0.35"
     inkscape:cx="344.47932"
     inkscape:cy="515.5748"
     inkscape:document-units="px"
     inkscape:current-layer="layer1"
     inkscape:window-width="744"
     inkscape:window-height="573"
     inkscape:window-x="250"
     inkscape:window-y="210" />
  <metadata
     id="metadata13089">
    <rdf:RDF>
      <cc:Work
         rdf:about="">
        <dc:format>image/svg+xml</dc:format>
        <dc:type
           rdf:resource="http://purl.org/dc/dcmitype/StillImage" />
      </cc:Work>
    </rdf:RDF>
  </metadata>
  <g
     inkscape:label="Layer 1"
     inkscape:groupmode="layer"
     id="layer1"
     transform="translate(-144.13305,-98.656847)">
    <g
       id="g2284"
       transform="matrix(2.3695986,0,0,2.3695986,-725.48631,-13.255197)">
      <g
         transform="translate(-1.9642857,-0.7142857)"
         id="g2276">
        <path
           style="fill:#999999;fill-rule:evenodd;stroke:#000000;stroke-width:0.88537604px;stroke-linecap:butt;stroke-linejoin:miter;stroke-opacity:1"
           d="M 433.15781,89.080677 L 432.60565,89.408373 L 427.64645,87.627491 L 431.33838,82.278533 L 434.77596,86.875074 L 434.58504,87.706885 L 436.4002,88.963312 L 435.2296,90.659337 L 433.15781,89.080677 z "
           id="path10072"
           sodipodi:nodetypes="ccccccccc" />
        <path
           style="fill:#999999;fill-rule:evenodd;stroke:#000000;stroke-width:0.88537604px;stroke-linecap:butt;stroke-linejoin:miter;stroke-opacity:1"
           d="M 438.00555,82.637902 L 437.45338,82.965599 L 432.49419,81.184716 L 436.1861,75.835747 L 439.62367,80.432289 L 439.43275,81.2641 L 441.24793,82.520538 L 440.07733,84.216562 L 438.00555,82.637902 z "
           id="path10066"
           sodipodi:nodetypes="ccccccccc" />
        <path
           style="fill:#999999;fill-rule:evenodd;stroke:#000000;stroke-width:0.88537604px;stroke-linecap:butt;stroke-linejoin:miter;stroke-opacity:1"
           d="M 442.95281,76.19346 L 442.40064,76.521157 L 437.44145,74.740274 L 441.13338,69.391317 L 444.57095,73.987858 L 444.38003,74.819669 L 446.19519,76.076096 L 445.02459,77.77212 L 442.95281,76.19346 z "
           id="path10064"
           sodipodi:nodetypes="ccccccccc" />
        <path
           style="fill:#999999;fill-rule:evenodd;stroke:#000000;stroke-width:0.88537604px;stroke-linecap:butt;stroke-linejoin:miter;stroke-opacity:1"
           d="M 447.34925,69.768653 L 446.79709,70.096349 L 441.83789,68.315467 L 445.52981,62.966498 L 448.9674,67.563051 L 448.77647,68.394832 L 450.59164,69.651288 L 449.42104,71.347313 L 447.34925,69.768653 z "
           id="path10058"
           sodipodi:nodetypes="ccccccccc" />
        <path
           style="fill:#999999;fill-rule:evenodd;stroke:#000000;stroke-width:0.88537604px;stroke-linecap:butt;stroke-linejoin:miter;stroke-opacity:1"
           d="M 452.46874,62.949367 L 451.91657,63.277063 L 446.95738,61.496181 L 450.64929,56.147212 L 454.08687,60.743753 L 453.89594,61.575564 L 455.71112,62.832002 L 454.5405,64.528016 L 452.46874,62.949367 z "
           id="path10060"
           sodipodi:nodetypes="ccccccccc" />
        <path
           style="fill:#999999;fill-rule:evenodd;stroke:#000000;stroke-width:0.88537604px;stroke-linecap:butt;stroke-linejoin:miter;stroke-opacity:1"
           d="M 457.41029,56.320767 L 456.85812,56.648463 L 451.89893,54.867581 L 455.59086,49.518623 L 459.02844,54.115165 L 458.83751,54.946975 L 460.65267,56.203402 L 459.48207,57.899427 L 457.41029,56.320767 z "
           id="path10062"
           sodipodi:nodetypes="ccccccccc" />
      </g>
      <path
         sodipodi:nodetypes="cccccccccccccc"
         id="path10052"
         d="M 436.36582,247.7629 C 433.30769,252.8129 429.36006,256.61453 423.41322,257.61033 C 417.57551,259.04014 417.90235,263.29787 417.4715,267.208 C 419.99546,280.2743 421.33596,290.12166 422.35798,299.10276 C 427.83184,303.70568 384.82003,369.93371 367.96139,406.11171 C 367.56938,408.0683 366.18575,410.91191 369.62416,409.44187 C 417.91419,402.11808 463.50399,388.70669 503.61893,362.95276 C 506.52507,362.26077 505.431,358.57593 504.94314,355.34463 C 498.01424,337.45273 490.9394,319.64044 485.32546,301.03112 L 508.99436,225.88205 C 507.7502,221.91598 505.35298,221.12892 502.85282,220.62569 L 468.70113,251.04322 C 458.9655,252.09486 457.49134,245.75597 455.61487,239.77693 L 436.36582,247.7629 z "
         style="fill:#800000;fill-rule:evenodd;stroke:#000000;stroke-width:0.72853827px;stroke-linecap:butt;stroke-linejoin:miter;stroke-opacity:1" />
      <path
         sodipodi:nodetypes="ccccccc"
         id="path10054"
         d="M 437.9584,105.10507 C 436.48759,98.939521 433.07193,96.275462 428.82591,95.10634 L 457.91309,54.986126 C 463.50874,47.194811 468.85733,47.330408 474.78357,47.748189 C 476.86399,49.271852 476.29581,50.88985 475.29901,52.523159 C 465.2134,67.22635 456.44016,83.384981 451.90132,104.23964 L 437.9584,105.10507 z "
         style="fill:#000000;fill-rule:evenodd;stroke:#000000;stroke-width:0.72853827px;stroke-linecap:butt;stroke-linejoin:miter;stroke-opacity:1" />
      <path
         sodipodi:nodetypes="ccccccccccc"
         id="path10056"
         d="M 501.44578,224.71703 L 474.32197,251.23409 L 461.00085,257.57491 L 460.85956,274.00544 L 438.14304,274.94508 L 438.74764,294.4777 L 460.69322,293.82626 L 463.35326,320.97698 L 474.00752,320.85815 L 505.7947,226.64787 C 505.08328,222.83213 503.36823,223.32891 501.44578,224.71703 z "
         style="fill:#ffffff;fill-rule:evenodd;stroke:#000000;stroke-width:0.72853833px;stroke-linecap:butt;stroke-linejoin:miter;stroke-opacity:1" />
      <path
         sodipodi:nodetypes="ccccc"
         id="path10068"
         d="M 436.8548,106.72627 L 435.50631,259.38395 L 456.06987,258.65138 L 451.51452,106.57272 L 436.8548,106.72627 z "
         style="fill:#c87137;fill-rule:evenodd;stroke:#000000;stroke-width:0.85031223px;stroke-linecap:butt;stroke-linejoin:miter;stroke-opacity:1" />
      <rect
         transform="matrix(0.999366,-3.5602282e-2,3.0938021e-2,0.9995213,0,0)"
         ry="0.13282572"
         y="271.95132"
         x="427.42972"
         height="0.61047095"
         width="20.659712"
         id="rect10070"
         style="fill:#cccccc;fill-opacity:1;fill-rule:evenodd;stroke:#000000;stroke-width:0.19987802;stroke-miterlimit:4;stroke-dasharray:none;stroke-opacity:1" />
      <rect
         transform="matrix(0.999366,-3.5602282e-2,3.0938021e-2,0.9995213,0,0)"
         ry="1.7556552"
         y="275.01578"
         x="423.20792"
         height="16.978914"
         width="29.151052"
         id="rect10074"
         style="fill:#1a1a1a;fill-opacity:1;fill-rule:evenodd;stroke:#000000;stroke-width:0.84742737;stroke-miterlimit:4;stroke-dasharray:none;stroke-opacity:1" />
      <rect
         transform="matrix(0.999366,-3.5602282e-2,3.0938021e-2,0.9995213,0,0)"
         ry="0.67832386"
         y="284.30902"
         x="426.11563"
         height="5.1550388"
         width="24.327909"
         id="rect10076"
         style="fill:#333333;fill-opacity:1;fill-rule:evenodd;stroke:#000000;stroke-width:0.55500245;stroke-miterlimit:4;stroke-dasharray:none;stroke-opacity:1" />
      <rect
         transform="matrix(0.999366,-3.5602282e-2,3.0938021e-2,0.9995213,0,0)"
         ry="0.67832386"
         y="277.17435"
         x="426.00095"
         height="5.1550388"
         width="24.327909"
         id="rect10078"
         style="fill:#333333;fill-opacity:1;fill-rule:evenodd;stroke:#000000;stroke-width:0.55500245;stroke-miterlimit:4;stroke-dasharray:none;stroke-opacity:1" />
      <rect
         transform="matrix(0.999366,-3.5602282e-2,3.0938021e-2,0.9995213,0,0)"
         ry="0.13282572"
         y="268.94177"
         x="427.45566"
         height="0.61047095"
         width="20.659712"
         id="rect10080"
         style="fill:#cccccc;fill-opacity:1;fill-rule:evenodd;stroke:#000000;stroke-width:0.19987802;stroke-miterlimit:4;stroke-dasharray:none;stroke-opacity:1" />
      <rect
         transform="matrix(0.999366,-3.5602282e-2,3.0938021e-2,0.9995213,0,0)"
         ry="0.13311189"
         y="265.40515"
         x="427.5343"
         height="0.61178625"
         width="20.345261"
         id="rect10082"
         style="fill:#cccccc;fill-opacity:1;fill-rule:evenodd;stroke:#000000;stroke-width:0.19856466;stroke-miterlimit:4;stroke-dasharray:none;stroke-opacity:1" />
      <rect
         transform="matrix(0.999366,-3.5602282e-2,3.0938021e-2,0.9995213,0,0)"
         ry="0.13282572"
         y="261.94492"
         x="427.35022"
         height="0.61047095"
         width="20.659712"
         id="rect10084"
         style="fill:#cccccc;fill-opacity:1;fill-rule:evenodd;stroke:#000000;stroke-width:0.19987802;stroke-miterlimit:4;stroke-dasharray:none;stroke-opacity:1" />
      <rect
         transform="matrix(0.999366,-3.5602282e-2,3.0938021e-2,0.9995213,0,0)"
         ry="0.13282572"
         y="258.1434"
         x="427.48111"
         height="0.61047095"
         width="20.659712"
         id="rect10086"
         style="fill:#cccccc;fill-opacity:1;fill-rule:evenodd;stroke:#000000;stroke-width:0.19987802;stroke-miterlimit:4;stroke-dasharray:none;stroke-opacity:1" />
      <rect
         transform="matrix(0.999366,-3.5602282e-2,3.0938021e-2,0.9995213,0,0)"
         ry="0.13311191"
         y="253.57686"
         x="427.82318"
         height="0.61178625"
         width="20.345261"
         id="rect10088"
         style="fill:#cccccc;fill-opacity:1;fill-rule:evenodd;stroke:#000000;stroke-width:0.19856465;stroke-miterlimit:4;stroke-dasharray:none;stroke-opacity:1" />
      <rect
         transform="matrix(0.999366,-3.5602282e-2,3.0938021e-2,0.9995213,0,0)"
         ry="0.13325605"
         y="248.14728"
         x="428.32129"
         height="0.61244881"
         width="20.188038"
         id="rect10090"
         style="fill:#cccccc;fill-opacity:1;fill-rule:evenodd;stroke:#000000;stroke-width:0.19790302;stroke-miterlimit:4;stroke-dasharray:none;stroke-opacity:1" />
      <rect
         transform="matrix(0.999366,-3.5602282e-2,3.0938021e-2,0.9995213,0,0)"
         ry="0.13296847"
         y="243.68593"
         x="428.08548"
         height="0.61112696"
         width="20.502485"
         id="rect10092"
         style="fill:#cccccc;fill-opacity:1;fill-rule:evenodd;stroke:#000000;stroke-width:0.19922297;stroke-miterlimit:4;stroke-dasharray:none;stroke-opacity:1" />
      <rect
         transform="matrix(0.999366,-3.5602282e-2,3.0938021e-2,0.9995213,0,0)"
         ry="0.13340095"
         y="238.32904"
         x="428.37405"
         height="0.61311477"
         width="20.030821"
         id="rect10094"
         style="fill:#cccccc;fill-opacity:1;fill-rule:evenodd;stroke:#000000;stroke-width:0.19723801;stroke-miterlimit:4;stroke-dasharray:none;stroke-opacity:1" />
      <rect
         transform="matrix(0.999366,-3.5602282e-2,3.0938021e-2,0.9995213,0,0)"
         ry="0.13340095"
         y="232.26151"
         x="428.55807"
         height="0.61311477"
         width="20.030821"
         id="rect10096"
         style="fill:#cccccc;fill-opacity:1;fill-rule:evenodd;stroke:#000000;stroke-width:0.19723801;stroke-miterlimit:4;stroke-dasharray:none;stroke-opacity:1" />
      <rect
         transform="matrix(0.999366,-3.5602282e-2,3.0938021e-2,0.9995213,0,0)"
         ry="0.13369294"
         y="226.5083"
         x="428.71466"
         height="0.61445671"
         width="19.716396"
         id="rect10098"
         style="fill:#cccccc;fill-opacity:1;fill-rule:evenodd;stroke:#000000;stroke-width:0.19589794;stroke-miterlimit:4;stroke-dasharray:none;stroke-opacity:1" />
      <rect
         transform="matrix(0.999366,-3.5602282e-2,3.0938021e-2,0.9995213,0,0)"
         ry="0.1345873"
         y="219.6743"
         x="429.18622"
         height="0.61856729"
         width="18.773207"
         id="rect10100"
         style="fill:#cccccc;fill-opacity:1;fill-rule:evenodd;stroke:#000000;stroke-width:0.19179316;stroke-miterlimit:4;stroke-dasharray:none;stroke-opacity:1" />
      <rect
         transform="matrix(0.999366,-3.5602282e-2,3.0938021e-2,0.9995213,0,0)"
         ry="0.13443626"
         y="213.71098"
         x="429.34305"
         height="0.61787307"
         width="18.930397"
         id="rect10102"
         style="fill:#cccccc;fill-opacity:1;fill-rule:evenodd;stroke:#000000;stroke-width:0.19248632;stroke-miterlimit:4;stroke-dasharray:none;stroke-opacity:1" />
      <rect
         transform="matrix(0.999366,-3.5602282e-2,3.0938021e-2,0.9995213,0,0)"
         ry="0.1341366"
         y="206.29755"
         x="429.31769"
         height="0.61649579"
         width="19.244785"
         id="rect10104"
         style="fill:#cccccc;fill-opacity:1;fill-rule:evenodd;stroke:#000000;stroke-width:0.19386172;stroke-miterlimit:4;stroke-dasharray:none;stroke-opacity:1" />
      <rect
         transform="matrix(0.999366,-3.5602282e-2,3.0938021e-2,0.9995213,0,0)"
         ry="0.13646621"
         y="132.07079"
         x="432.06927"
         height="0.62720281"
         width="16.887239"
         id="rect10106"
         style="fill:#cccccc;fill-opacity:1;fill-rule:evenodd;stroke:#000000;stroke-width:0.18316975;stroke-miterlimit:4;stroke-dasharray:none;stroke-opacity:1" />
      <rect
         transform="matrix(0.999366,-3.5602282e-2,3.0938021e-2,0.9995213,0,0)"
         ry="0.13849783"
         y="120.72806"
         x="433.16504"
         height="2.2278907"
         width="15.512341"
         id="rect10108"
         style="fill:#cccccc;fill-opacity:1;fill-rule:evenodd;stroke:#000000;stroke-width:0.43138292;stroke-miterlimit:4;stroke-dasharray:none;stroke-opacity:1" />
      <rect
         transform="matrix(0.999366,-3.5602282e-2,3.0938021e-2,0.9995213,0,0)"
         ry="0.13551094"
         y="153.60381"
         x="431.02148"
         height="0.62281233"
         width="17.830149"
         id="rect10110"
         style="fill:#cccccc;fill-opacity:1;fill-rule:evenodd;stroke:#000000;stroke-width:0.18755409;stroke-miterlimit:4;stroke-dasharray:none;stroke-opacity:1" />
      <rect
         transform="matrix(0.999366,-3.5602282e-2,3.0938021e-2,0.9995213,0,0)"
         ry="0.13630468"
         y="142.99414"
         x="431.49326"
         height="0.62646049"
         width="17.04438"
         id="rect10112"
         style="fill:#cccccc;fill-opacity:1;fill-rule:evenodd;stroke:#000000;stroke-width:0.18391106;stroke-miterlimit:4;stroke-dasharray:none;stroke-opacity:1" />
      <rect
         transform="matrix(0.999366,-3.5602282e-2,3.0938021e-2,0.9995213,0,0)"
         ry="0.13582572"
         y="163.73599"
         x="431.17865"
         height="0.62425905"
         width="17.515829"
         id="rect10114"
         style="fill:#cccccc;fill-opacity:1;fill-rule:evenodd;stroke:#000000;stroke-width:0.18610938;stroke-miterlimit:4;stroke-dasharray:none;stroke-opacity:1" />
      <rect
         transform="matrix(0.999366,-3.5602282e-2,3.0938021e-2,0.9995213,0,0)"
         ry="0.13551094"
         y="173.23627"
         x="430.86356"
         height="0.62281233"
         width="17.830149"
         id="rect10116"
         style="fill:#cccccc;fill-opacity:1;fill-rule:evenodd;stroke:#000000;stroke-width:0.18755409;stroke-miterlimit:4;stroke-dasharray:none;stroke-opacity:1" />
      <rect
         transform="matrix(0.999366,-3.5602282e-2,3.0938021e-2,0.9995213,0,0)"
         ry="0.13582572"
         y="181.94345"
         x="430.70496"
         height="0.62425905"
         width="17.515829"
         id="rect10118"
         style="fill:#cccccc;fill-opacity:1;fill-rule:evenodd;stroke:#000000;stroke-width:0.18610938;stroke-miterlimit:4;stroke-dasharray:none;stroke-opacity:1" />
      <rect
         transform="matrix(0.999366,-3.5602282e-2,3.0938021e-2,0.9995213,0,0)"
         ry="0.13473913"
         y="190.86015"
         x="430.078"
         height="0.61926514"
         width="18.61602"
         id="rect10120"
         style="fill:#cccccc;fill-opacity:1;fill-rule:evenodd;stroke:#000000;stroke-width:0.19109626;stroke-miterlimit:4;stroke-dasharray:none;stroke-opacity:1" />
      <rect
         transform="matrix(0.999366,-3.5602282e-2,3.0938021e-2,0.9995213,0,0)"
         ry="0.1345873"
         y="198.59296"
         x="429.8157"
         height="0.61856729"
         width="18.773207"
         id="rect10122"
         style="fill:#cccccc;fill-opacity:1;fill-rule:evenodd;stroke:#000000;stroke-width:0.19179316;stroke-miterlimit:4;stroke-dasharray:none;stroke-opacity:1" />
      <rect
         transform="matrix(0.999366,-3.5602282e-2,3.0938021e-2,0.9995213,0,0)"
         ry="1.7552571"
         y="310.24817"
         x="421.98984"
         height="16.975063"
         width="29.422802"
         id="rect10124"
         style="fill:#1a1a1a;fill-opacity:1;fill-rule:evenodd;stroke:#000000;stroke-width:0.85127163;stroke-miterlimit:4;stroke-dasharray:none;stroke-opacity:1" />
      <rect
         transform="matrix(0.999366,-3.5602282e-2,3.0938021e-2,0.9995213,0,0)"
         ry="0.67832386"
         y="319.94952"
         x="425.02814"
         height="5.1550388"
         width="24.327909"
         id="rect10126"
         style="fill:#333333;fill-opacity:1;fill-rule:evenodd;stroke:#000000;stroke-width:0.55500245;stroke-miterlimit:4;stroke-dasharray:none;stroke-opacity:1" />
      <rect
         transform="matrix(0.999366,-3.5602282e-2,3.0938021e-2,0.9995213,0,0)"
         ry="0.67832386"
         y="312.81488"
         x="424.91354"
         height="5.1550388"
         width="24.327909"
         id="rect10128"
         style="fill:#333333;fill-opacity:1;fill-rule:evenodd;stroke:#000000;stroke-width:0.55500245;stroke-miterlimit:4;stroke-dasharray:none;stroke-opacity:1" />
      <rect
         transform="matrix(0.9998681,-1.6238559e-2,1.1684093e-2,0.9999317,0,0)"
         ry="3.772877"
         y="333.8508"
         x="424.98984"
         height="8.0408268"
         width="34.696415"
         id="rect10130"
         style="fill:#1a1a1a;fill-opacity:1;fill-rule:evenodd;stroke:#000000;stroke-width:0.9198572;stroke-miterlimit:4;stroke-dasharray:none;stroke-opacity:1" />
      <path
         transform="matrix(0.7615792,-1.2368595e-2,8.9263615e-3,0.763909,177.82726,52.555085)"
         d="M 333.39285 369.59433 A 3.125 3.125 0 1 1  327.14285,369.59433 A 3.125 3.125 0 1 1  333.39285 369.59433 z"
         sodipodi:ry="3.125"
         sodipodi:rx="3.125"
         sodipodi:cy="369.59433"
         sodipodi:cx="330.26785"
         id="path10132"
         style="fill:#4d4d4d;fill-opacity:1;fill-rule:evenodd;stroke:#000000;stroke-width:0.2;stroke-miterlimit:4;stroke-dasharray:none;stroke-opacity:1"
         sodipodi:type="arc" />
      <path
         transform="matrix(0.7615792,-1.2368595e-2,8.9263615e-3,0.763909,205.05767,52.271205)"
         d="M 333.39285 369.59433 A 3.125 3.125 0 1 1  327.14285,369.59433 A 3.125 3.125 0 1 1  333.39285 369.59433 z"
         sodipodi:ry="3.125"
         sodipodi:rx="3.125"
         sodipodi:cy="369.59433"
         sodipodi:cx="330.26785"
         id="path10134"
         style="fill:#4d4d4d;fill-opacity:1;fill-rule:evenodd;stroke:#000000;stroke-width:0.2;stroke-miterlimit:4;stroke-dasharray:none;stroke-opacity:1"
         sodipodi:type="arc" />
      <g
         transform="matrix(0.6497792,-1.3983828e-3,-1.5102048e-3,0.6518078,176.27977,-22.979485)"
         id="g10136">
        <rect
           style="fill:#1a1a1a;fill-opacity:1;fill-rule:evenodd;stroke:#000000;stroke-width:1.24091876;stroke-miterlimit:4;stroke-dasharray:none;stroke-opacity:1"
           id="rect10138"
           width="45.981277"
           height="11.042063"
           x="364.83749"
           y="538.41431"
           ry="5.1811018"
           transform="matrix(0.9985464,-5.3899091e-2,5.3899091e-2,0.9985464,0,0)" />
        <path
           sodipodi:type="arc"
           style="fill:#4d4d4d;fill-opacity:1;fill-rule:evenodd;stroke:#000000;stroke-width:0.2;stroke-miterlimit:4;stroke-dasharray:none;stroke-opacity:1"
           id="path10140"
           sodipodi:cx="330.26785"
           sodipodi:cy="369.59433"
           sodipodi:rx="3.125"
           sodipodi:ry="3.125"
           d="M 333.39285 369.59433 A 3.125 3.125 0 1 1  327.14285,369.59433 A 3.125 3.125 0 1 1  333.39285 369.59433 z"
           transform="matrix(0.9043035,0,0,0.9043035,100.63622,188.77439)" />
        <path
           sodipodi:type="arc"
           style="fill:#4d4d4d;fill-opacity:1;fill-rule:evenodd;stroke:#000000;stroke-width:0.2;stroke-miterlimit:4;stroke-dasharray:none;stroke-opacity:1"
           id="path10142"
           sodipodi:cx="330.26785"
           sodipodi:cy="369.59433"
           sodipodi:rx="3.125"
           sodipodi:ry="3.125"
           d="M 333.39285 369.59433 A 3.125 3.125 0 1 1  327.14285,369.59433 A 3.125 3.125 0 1 1  333.39285 369.59433 z"
           transform="matrix(0.9043035,0,0,0.9043035,134.77928,186.93296)" />
      </g>
      <path
         sodipodi:nodetypes="ccc"
         id="path10144"
         d="M 435.76873,89.102368 L 438.75159,105.65211 L 438.01331,327.79695"
         style="fill:none;fill-rule:evenodd;stroke:#555555;stroke-width:0.44366607;stroke-linecap:butt;stroke-linejoin:miter;stroke-miterlimit:4;stroke-dasharray:none;stroke-opacity:1" />
      <path
         sodipodi:nodetypes="ccc"
         id="path10146"
         d="M 440.24366,82.628682 L 441.40473,106.29722 L 441.2583,327.44885"
         style="fill:none;fill-rule:evenodd;stroke:#555555;stroke-width:0.44385865;stroke-linecap:butt;stroke-linejoin:miter;stroke-miterlimit:4;stroke-dasharray:none;stroke-opacity:1" />
      <path
         sodipodi:nodetypes="ccc"
         id="path10148"
         d="M 445.01721,76.053847 L 443.53312,106.0115 L 444.95506,327.42949"
         style="fill:none;fill-rule:evenodd;stroke:#555555;stroke-width:0.4440963;stroke-linecap:butt;stroke-linejoin:miter;stroke-miterlimit:4;stroke-dasharray:none;stroke-opacity:1" />
      <path
         sodipodi:nodetypes="ccc"
         id="path10150"
         d="M 449.32839,69.809423 L 445.83406,106.15053 L 447.98296,327.64716"
         style="fill:none;fill-rule:evenodd;stroke:#555555;stroke-width:0.4439446;stroke-linecap:butt;stroke-linejoin:miter;stroke-miterlimit:4;stroke-dasharray:none;stroke-opacity:1" />
      <path
         sodipodi:nodetypes="ccc"
         id="path10152"
         d="M 454.47728,62.503172 L 447.99224,105.92036 L 451.43706,327.27284"
         style="fill:none;fill-rule:evenodd;stroke:#555555;stroke-width:0.44384161;stroke-linecap:butt;stroke-linejoin:miter;stroke-miterlimit:4;stroke-dasharray:none;stroke-opacity:1" />
      <path
         sodipodi:nodetypes="ccc"
         id="path10154"
         d="M 459.62882,55.86693 L 450.35421,105.6766 L 454.44712,327.56644"
         style="fill:none;fill-opacity:1;fill-rule:evenodd;stroke:#555555;stroke-width:0.44420919;stroke-linecap:butt;stroke-linejoin:miter;stroke-miterlimit:4;stroke-dasharray:none;stroke-opacity:1" />
      <rect
         transform="matrix(0.9999482,-1.0182088e-2,1.6270951e-2,0.9998676,0,0)"
         ry="3.4856033"
         y="331.75031"
         x="429.98373"
         height="6.9712067"
         width="21.452541"
         id="rect10156"
         style="fill:#333333;fill-opacity:1;fill-rule:evenodd;stroke:none;stroke-width:0.5;stroke-miterlimit:4;stroke-dasharray:none;stroke-opacity:1" />
      <path
         transform="matrix(0.459194,-1.6358628e-2,1.4255528e-2,0.460559,317.14798,-1.1632604)"
         d="M 255.35714 205.57646 A 3.3928571 3.3928571 0 1 1  248.57142,205.57646 A 3.3928571 3.3928571 0 1 1  255.35714 205.57646 z"
         sodipodi:ry="3.3928571"
         sodipodi:rx="3.3928571"
         sodipodi:cy="205.57646"
         sodipodi:cx="251.96428"
         id="path10158"
         style="fill:#b3b3b3;stroke:none;stroke-width:3.98099995;stroke-linejoin:round;stroke-miterlimit:4;stroke-dasharray:none;stroke-opacity:1"
         sodipodi:type="arc" />
      <path
         transform="matrix(0.459194,-1.6358628e-2,1.4255528e-2,0.460559,321.75024,-7.8452678)"
         d="M 255.35714 205.57646 A 3.3928571 3.3928571 0 1 1  248.57142,205.57646 A 3.3928571 3.3928571 0 1 1  255.35714 205.57646 z"
         sodipodi:ry="3.3928571"
         sodipodi:rx="3.3928571"
         sodipodi:cy="205.57646"
         sodipodi:cx="251.96428"
         id="path10160"
         style="fill:#b3b3b3;stroke:none;stroke-width:3.98099995;stroke-linejoin:round;stroke-miterlimit:4;stroke-dasharray:none;stroke-opacity:1"
         sodipodi:type="arc" />
      <path
         transform="matrix(0.459194,-1.6358628e-2,1.4255528e-2,0.460559,326.35651,-14.397049)"
         d="M 255.35714 205.57646 A 3.3928571 3.3928571 0 1 1  248.57142,205.57646 A 3.3928571 3.3928571 0 1 1  255.35714 205.57646 z"
         sodipodi:ry="3.3928571"
         sodipodi:rx="3.3928571"
         sodipodi:cy="205.57646"
         sodipodi:cx="251.96428"
         id="path10162"
         style="fill:#b3b3b3;stroke:none;stroke-width:3.98099995;stroke-linejoin:round;stroke-miterlimit:4;stroke-dasharray:none;stroke-opacity:1"
         sodipodi:type="arc" />
      <path
         transform="matrix(0.459194,-1.6358628e-2,1.4255528e-2,0.460559,330.83699,-20.814009)"
         d="M 255.35714 205.57646 A 3.3928571 3.3928571 0 1 1  248.57142,205.57646 A 3.3928571 3.3928571 0 1 1  255.35714 205.57646 z"
         sodipodi:ry="3.3928571"
         sodipodi:rx="3.3928571"
         sodipodi:cy="205.57646"
         sodipodi:cx="251.96428"
         id="path10164"
         style="fill:#b3b3b3;stroke:none;stroke-width:3.98099995;stroke-linejoin:round;stroke-miterlimit:4;stroke-dasharray:none;stroke-opacity:1"
         sodipodi:type="arc" />
      <path
         transform="matrix(0.459194,-1.6358628e-2,1.4255528e-2,0.460559,335.82065,-27.770323)"
         d="M 255.35714 205.57646 A 3.3928571 3.3928571 0 1 1  248.57142,205.57646 A 3.3928571 3.3928571 0 1 1  255.35714 205.57646 z"
         sodipodi:ry="3.3928571"
         sodipodi:rx="3.3928571"
         sodipodi:cy="205.57646"
         sodipodi:cx="251.96428"
         id="path10166"
         style="fill:#b3b3b3;stroke:none;stroke-width:3.98099995;stroke-linejoin:round;stroke-miterlimit:4;stroke-dasharray:none;stroke-opacity:1"
         sodipodi:type="arc" />
      <path
         transform="matrix(0.459194,-1.6358628e-2,1.4255528e-2,0.460559,340.93819,-34.601064)"
         d="M 255.35714 205.57646 A 3.3928571 3.3928571 0 1 1  248.57142,205.57646 A 3.3928571 3.3928571 0 1 1  255.35714 205.57646 z"
         sodipodi:ry="3.3928571"
         sodipodi:rx="3.3928571"
         sodipodi:cy="205.57646"
         sodipodi:cx="251.96428"
         id="path10168"
         style="fill:#b3b3b3;stroke:none;stroke-width:3.98099995;stroke-linejoin:round;stroke-miterlimit:4;stroke-dasharray:none;stroke-opacity:1"
         sodipodi:type="arc" />
    </g>
  </g>
</svg>